<mxfile host="app.diagrams.net" modified="2024-04-23T13:02:06.375Z" agent="Mozilla/5.0 (Windows NT 10.0; Win64; x64) AppleWebKit/537.36 (KHTML, like Gecko) Chrome/123.0.0.0 Safari/537.36 Edg/123.0.0.0" version="24.2.8" etag="lwDkBPrwA6lX0haPAKjz" type="github">
  <diagram name="Halaman-1" id="q1jB2JgsmvfeOpH-hknu">
    <mxGraphModel>
      <root>
        <mxCell id="0" />
        <mxCell id="1" parent="0" />
      </root>
    </mxGraphModel>
  </diagram>
</mxfile>
